HIERARCHY
ROOT Hips
{
    OFFSET 0.000000 0.000000 0.000000
    CHANNELS 6 Xposition Yposition Zposition Zrotation Xrotation Yrotation
    JOINT Spine
    {
        OFFSET -0.000000 8.603107 0.000000
        CHANNELS 3 Zrotation Xrotation Yrotation
        JOINT Spine1
        {
            OFFSET -0.000000 23.906662 0.000000
            CHANNELS 3 Zrotation Xrotation Yrotation
            JOINT Neck
            {
                OFFSET -0.000000 23.808481 2.164407
                CHANNELS 3 Zrotation Xrotation Yrotation
                JOINT Head
                {
                    OFFSET -0.000000 14.688231 -2.098319
                    CHANNELS 3 Zrotation Xrotation Yrotation
                    End Site
                    {
                        OFFSET -0.000000 26.228985 0.000000
                    }
                }
            }
            JOINT LeftShoulder
            {
                OFFSET 4.178941 22.658146 -0.129871
                CHANNELS 3 Zrotation Xrotation Yrotation
                JOINT LeftArm
                {
                    OFFSET 9.497952 0.000000 0.000000
                    CHANNELS 3 Zrotation Xrotation Yrotation
                    JOINT LeftForeArm
                    {
                        OFFSET 38.855015 0.000000 0.000000
                        CHANNELS 3 Zrotation Xrotation Yrotation
                        JOINT LeftHand
                        {
                            OFFSET 24.940550 0.000000 0.000000
                            CHANNELS 3 Zrotation Xrotation Yrotation
                            End Site
                            {
                                OFFSET 15.737392 0.000000 0.000000
                            }
                        }
                    }
                }
            }
            JOINT RightShoulder
            {
                OFFSET -4.145384 22.658146 -0.129871
                CHANNELS 3 Zrotation Xrotation Yrotation
                JOINT RightArm
                {
                    OFFSET -9.497952 0.000000 0.000000
                    CHANNELS 3 Zrotation Xrotation Yrotation
                    JOINT RightForeArm
                    {
                        OFFSET -38.855015 0.000000 0.000000
                        CHANNELS 3 Zrotation Xrotation Yrotation
                        JOINT RightHand
                        {
                            OFFSET -24.940550 0.000000 0.000000
                            CHANNELS 3 Zrotation Xrotation Yrotation
                            End Site
                            {
                                OFFSET -15.737392 0.000000 0.000000
                            }
                        }
                    }
                }
            }
        }
    }
    JOINT LeftUpLeg
    {
        OFFSET 10.491594 0.000000 0.000000
        CHANNELS 3 Zrotation Xrotation Yrotation
        JOINT LeftLeg
        {
            OFFSET -0.000000 -46.080647 0.000000
            CHANNELS 3 Zrotation Xrotation Yrotation
            JOINT LeftFoot
            {
                OFFSET -0.000000 -50.184704 0.000000
                CHANNELS 3 Zrotation Xrotation Yrotation
                JOINT LeftToeBase
                {
                    OFFSET -0.000000 -6.819536 15.737392
                    CHANNELS 3 Zrotation Xrotation Yrotation
                    End Site
                    {
                        OFFSET -0.000000 0.000000 4.196638
                    }
                }
            }
        }
    }
    JOINT RightUpLeg
    {
        OFFSET -10.491594 0.000000 0.000000
        CHANNELS 3 Zrotation Xrotation Yrotation
        JOINT RightLeg
        {
            OFFSET -0.000000 -46.080647 0.000000
            CHANNELS 3 Zrotation Xrotation Yrotation
            JOINT RightFoot
            {
                OFFSET -0.000000 -50.184704 0.000000
                CHANNELS 3 Zrotation Xrotation Yrotation
                JOINT RightToeBase
                {
                    OFFSET -0.000000 -6.819536 15.737392
                    CHANNELS 3 Zrotation Xrotation Yrotation
                    End Site
                    {
                        OFFSET -0.000000 0.000000 4.196638
                    }
                }
            }
        }
    }
}
MOTION
Frames:    5
Frame Time:    0.008333
-8.902964    109.523582    39.682621    -3.166972    -0.903718    95.307869    -1.501968    -6.572846    0.548975    4.185174    1.620176    0.575983    4.209717    7.454616    0.235514    -1.206459    -6.279069    -0.335516    -10.693810    14.031498    -14.203752    -51.177593    40.630871    -10.760843    -1.364598    -10.349665    -20.496384    -11.741687    -10.982717    3.865881    10.085458    11.237274    -7.106053    29.540905    59.576466    34.409203    1.734391    -12.313396    13.224156    6.726606    -12.470427    0.687774    1.950711    -8.807926    2.523760    -4.811886    21.804098    4.173672    -18.289385    8.219945    7.629395    0.000000    0.000000    0.000000    -0.225960    -3.559908    -5.778721    3.115911    14.039724    -4.037406    11.411922    13.659159    -7.013729    0.000000    0.000000    0.000000    
-8.906566    110.553864    39.626110    -3.423096    -0.792469    95.304756    -1.199306    -7.391171    0.549311    3.208543    2.888861    0.545830    5.355724    6.333055    0.486878    -2.297043    -6.017196    -0.431802    -9.248569    13.198567    -13.805187    -51.909924    41.625919    -11.094914    -1.126968    -10.029582    -20.823292    -12.486139    -10.678473    4.136964    10.204595    10.616916    -7.531538    28.985567    59.751694    35.429176    2.026839    -11.954981    13.516066    6.701398    -12.136733    0.930819    1.787927    -8.701811    2.889022    -4.428606    20.497782    4.491790    -18.293453    11.186467    7.878848    0.000000    0.000000    0.000000    -0.363137    -3.454443    -6.068168    2.848752    12.726660    -3.942423    12.513630    16.865988    -7.619997    0.000000    0.000000    0.000000    
-8.922475    111.523354    39.558975    -3.502820    -0.667178    95.190384    -1.155703    -7.126938    0.478682    3.184655    2.073759    0.492996    4.596477    6.802374    0.508513    -1.377253    -5.809960    -0.137999    -10.166984    13.955657    -13.557595    -51.222610    41.716747    -10.697390    -1.164627    -9.727209    -21.215206    -13.392664    -10.383620    3.820566    10.185637    11.125571    -6.907002    30.047977    59.193935    34.287655    2.133435    -11.495544    13.565733    7.526643    -11.684707    0.924521    1.743526    -8.528364    2.938601    -4.404083    19.448650    4.863425    -18.734045    13.375716    8.510815    0.000000    0.000000    0.000000    -0.522808    -3.221245    -6.339345    2.583421    11.476650    -3.662820    13.312984    19.681005    -8.191315    0.000000    0.000000    0.000000    
-8.964747    112.489822    39.503975    -3.698098    -0.667497    95.246101    -0.986375    -7.673048    0.432281    2.833150    2.890222    0.426934    4.349385    5.918521    0.630353    -0.669016    -5.327452    0.114361    -9.285393    13.272956    -13.532957    -52.111320    42.007656    -10.519214    -1.056758    -9.195138    -21.462297    -14.408945    -9.914916    4.189689    9.704522    10.445883    -6.998292    29.798782    59.944988    34.991844    2.211143    -11.283648    13.883093    8.006552    -11.505246    0.619031    1.702960    -8.663199    2.979322    -4.143103    18.742678    4.795739    -19.162445    15.167102    9.420467    0.000000    0.000000    0.000000    -0.551523    -3.169683    -6.518966    2.364635    10.365275    -3.336456    13.809061    22.234285    -9.065434    0.000000    0.000000    0.000000    
-8.908749    113.283752    39.490189    -3.706108    -0.708836    95.175690    -0.946586    -7.472201    0.382214    2.926055    2.136088    0.389440    4.862143    6.675803    0.777750    -1.842880    -5.386576    0.030235    -9.619885    13.478614    -13.649624    -52.600067    42.102314    -9.380360    -1.028688    -8.989280    -21.956573    -15.062230    -9.673854    3.738548    9.860662    11.077712    -6.540839    30.262033    59.512611    34.298958    2.113186    -10.908818    13.782698    8.989195    -11.079905    1.034075    1.823889    -8.484914    3.231575    -3.985777    18.132132    4.385009    -17.965263    16.097078    9.931251    0.000000    0.000000    0.000000    -0.480177    -2.986666    -6.826254    2.080721    9.543746    -2.675232    15.207815    23.777819    -10.438292    0.000000    0.000000    0.000000    
